<?xml-stylesheet type="text/css" href="svg.css"?>
<svg 
    xmlns="http://www.w3.org/2000/svg" 
    xmlns:xlink="http://www.w3.org/1999/xlink" 
    version="1.1" 
    width="500" 
    height="500" 
    viewBox="0 0 500 500">
    <g class="cloud">
        <rect x="50" y="50" rx="30" width="150" height="60"/>
        <circle cx="155" cy="55" r="25"/>
        <ellipse cx="110" cy="50" rx="40" ry="30"/>
    </g>
    <g class="lines">
        <line x1="0" x2="500" y1="250" y2="250"/>
        <line x1="250" x2="250" y1="0" y2="500"/>
    </g>
    <g class="stars">
        <polyline points="290, 50 340, 40 370, 60, 400, 75 480, 80 465, 130 410, 125 400, 75" stroke="grey" fill="none"/>
        <circle class="star" cx="290" cy="50"/>
        <circle class="star" cx="340" cy="40"/>
        <circle class="star" cx="370" cy="60"/>
        <circle class="star" cx="400" cy="75"/>
        <circle class="star" cx="480" cy="80"/>
        <circle class="star" cx="465" cy="130"/>
        <circle class="star" cx="410" cy="125"/>
    </g>
    <g class="rocket">
        <g class="main">
            <path class="body" d="M 200 350 l 0 -100 a 1 3 0 0 1 100 0 l 0 100 z"/>
            <circle class="illuminator illuminator-border" r="30"/>
            <circle class="illuminator" r="25"/>
        </g>
        <g class="top-part">
            <path d="M212.3 150 C 230 80 270 80 288 150 C 288 150 247 170 212.3 150" />
        </g>
        <g class="wing">
            <path class="wing-part" d="M 200 280 q -40 0 -50 70 q 10 -30 50 -40 z"/>
            <path class="wing-part" d="M 300 280 q 40 0 50 70 q -10 -30 -50 -40 z"/>
        </g>
    </g>
</svg>